<svg width="39" height="44" viewBox="0 0 39 44" fill="none" xmlns="http://www.w3.org/2000/svg">
<path d="M37.9179 30.3555L34.8632 28.5909C35.4159 28.0216 36.0499 27.5372 36.7445 27.1534C37.1986 26.8974 37.5332 26.4724 37.6754 25.9709C37.8176 25.4693 37.7559 24.932 37.5038 24.4757C37.2516 24.0194 36.8295 23.6812 36.3292 23.5348C35.8289 23.3883 35.291 23.4453 34.8326 23.6936C33.5064 24.4276 32.3312 25.4062 31.3691 26.5775L23.453 22L31.3673 17.4305C32.3292 18.6022 33.5044 19.5808 34.8308 20.3145C35.0582 20.4427 35.3086 20.5246 35.5678 20.5555C35.827 20.5863 36.0897 20.5656 36.3407 20.4944C36.5918 20.4232 36.8263 20.3029 37.0307 20.1406C37.2351 19.9783 37.4053 19.7772 37.5316 19.5487C37.6578 19.3203 37.7375 19.0691 37.7662 18.8097C37.7948 18.5503 37.7718 18.2878 37.6985 18.0373C37.6251 17.7869 37.5029 17.5534 37.3389 17.3504C37.1748 17.1474 36.9722 16.9789 36.7427 16.8546C36.0483 16.4707 35.4143 15.9863 34.8614 15.4171L37.9161 13.6526C38.1497 13.5277 38.3559 13.3571 38.5223 13.1509C38.6887 12.9447 38.8119 12.7072 38.8847 12.4524C38.9575 12.1976 38.9783 11.9308 38.9459 11.6679C38.9135 11.4049 38.8285 11.1511 38.6961 10.9216C38.5637 10.6922 38.3865 10.4916 38.175 10.332C37.9635 10.1724 37.7221 10.0569 37.4651 9.9924C37.2081 9.92792 36.9408 9.91577 36.679 9.95667C36.4173 9.99757 36.1664 10.0907 35.9413 10.2305L32.8866 11.9941C32.669 11.2304 32.5655 10.4387 32.5793 9.64469C32.5851 9.38466 32.5394 9.12606 32.445 8.88371C32.3506 8.64137 32.2093 8.42003 32.0291 8.23241C31.849 8.04478 31.6336 7.89454 31.3954 7.79031C31.1571 7.68608 30.9005 7.6299 30.6405 7.625H30.6037C30.0858 7.62491 29.5885 7.82809 29.2189 8.19084C28.8493 8.55359 28.6368 9.04692 28.6271 9.56473C28.5993 11.0794 28.8584 12.5856 29.3908 14.0039L21.4764 18.5761V9.43805C22.9718 9.19091 24.4068 8.66259 25.7054 7.88105C26.1544 7.61049 26.4776 7.17262 26.6038 6.66378C26.73 6.15494 26.6489 5.61681 26.3783 5.16777C26.1078 4.71873 25.6699 4.39557 25.161 4.26937C24.6522 4.14317 24.1141 4.22428 23.665 4.49484C22.9843 4.90397 22.2468 5.21006 21.4764 5.40316V2.41406C21.4764 1.88985 21.2682 1.3871 20.8975 1.01642C20.5268 0.645744 20.0241 0.4375 19.4999 0.4375C18.9757 0.4375 18.4729 0.645744 18.1022 1.01642C17.7316 1.3871 17.5233 1.88985 17.5233 2.41406V5.40316C16.753 5.21006 16.0154 4.90397 15.3347 4.49484C15.1124 4.36087 14.8658 4.27201 14.6091 4.23332C14.3525 4.19463 14.0907 4.20688 13.8387 4.26937C13.5868 4.33186 13.3496 4.44336 13.1407 4.59751C12.9319 4.75165 12.7554 4.94543 12.6214 5.16777C12.4875 5.39012 12.3986 5.63667 12.3599 5.89335C12.3212 6.15004 12.3335 6.41183 12.396 6.66378C12.4585 6.91573 12.57 7.15291 12.7241 7.36177C12.8783 7.57063 13.072 7.74708 13.2944 7.88105C14.593 8.66259 16.028 9.19091 17.5233 9.43805V18.5761L9.60898 14.0039C10.1422 12.5852 10.4019 11.0783 10.3744 9.56293C10.3648 9.04512 10.1523 8.55179 9.78267 8.18904C9.41303 7.82629 8.91578 7.62311 8.39789 7.6232H8.35926C8.09968 7.628 7.84358 7.68388 7.60561 7.78767C7.36763 7.89145 7.15243 8.0411 6.9723 8.22807C6.79217 8.41504 6.65064 8.63567 6.5558 8.87735C6.46095 9.11903 6.41465 9.37702 6.41953 9.6366C6.43401 10.4318 6.33077 11.2247 6.11316 11.9896L3.05847 10.2305C2.83353 10.0963 2.58416 10.0082 2.32485 9.97118C2.06555 9.93422 1.80148 9.94916 1.548 10.0151C1.29452 10.0811 1.05668 10.1968 0.848307 10.3555C0.639933 10.5142 0.465179 10.7128 0.334203 10.9396C0.203226 11.1664 0.118639 11.417 0.0853573 11.6768C0.0520756 11.9366 0.070763 12.2004 0.140334 12.453C0.209904 12.7055 0.328971 12.9417 0.490613 13.1478C0.652255 13.3539 0.853248 13.5258 1.08191 13.6535L4.1366 15.418C3.58365 15.9872 2.9497 16.4716 2.25527 16.8555C2.02577 16.9798 1.82315 17.1483 1.65911 17.3513C1.49506 17.5543 1.37284 17.7878 1.2995 18.0382C1.22616 18.2887 1.20315 18.5512 1.2318 18.8106C1.26045 19.07 1.34019 19.3212 1.46641 19.5496C1.59264 19.7781 1.76286 19.9792 1.96724 20.1415C2.17163 20.3038 2.40613 20.4241 2.65722 20.4953C2.90831 20.5665 3.17101 20.5872 3.43017 20.5564C3.68932 20.5255 3.9398 20.4436 4.16715 20.3154C5.49336 19.5814 6.66856 18.6028 7.63062 17.4314L15.5468 22L7.63242 26.5695C6.67035 25.3981 5.49516 24.4195 4.16894 23.6855C3.9416 23.5573 3.69112 23.4754 3.43196 23.4445C3.17281 23.4137 2.9101 23.4344 2.65902 23.5056C2.40793 23.5768 2.17342 23.6971 1.96904 23.8594C1.76466 24.0217 1.59444 24.2228 1.46821 24.4513C1.34198 24.6797 1.26224 24.9309 1.2336 25.1903C1.20495 25.4497 1.22796 25.7122 1.3013 25.9627C1.37464 26.2131 1.49686 26.4466 1.6609 26.6496C1.82495 26.8526 2.02757 27.0211 2.25707 27.1454C2.9515 27.5293 3.58544 28.0137 4.1384 28.5829L1.08191 30.3555C0.853248 30.4832 0.652255 30.6551 0.490613 30.8612C0.328971 31.0673 0.209904 31.3035 0.140334 31.556C0.070763 31.8085 0.0520756 32.0724 0.0853573 32.3322C0.118639 32.592 0.203226 32.8426 0.334203 33.0694C0.465179 33.2962 0.639933 33.4948 0.848307 33.6535C1.05668 33.8122 1.29452 33.9279 1.548 33.9938C1.80148 34.0598 2.06555 34.0748 2.32485 34.0378C2.58416 34.0008 2.83353 33.9127 3.05847 33.7785L6.11316 32.0149C6.33073 32.7786 6.43427 33.5703 6.42043 34.3643C6.41129 34.8879 6.61033 35.3938 6.97385 35.7708C7.33737 36.1478 7.83564 36.3651 8.35926 36.375H8.39609C8.91399 36.3751 9.41123 36.1719 9.78087 35.8092C10.1505 35.4464 10.363 34.9531 10.3727 34.4353C10.4005 32.9206 10.1414 31.4144 9.60898 29.9961L17.5233 25.4239V34.562C16.028 34.8091 14.593 35.3374 13.2944 36.1189C12.8453 36.3895 12.5222 36.8274 12.396 37.3362C12.2698 37.8451 12.3509 38.3832 12.6214 38.8322C12.892 39.2813 13.3299 39.6044 13.8387 39.7306C14.3476 39.8568 14.8857 39.7757 15.3347 39.5052C16.0154 39.096 16.753 38.7899 17.5233 38.5968V41.5859C17.5233 42.1102 17.7316 42.6129 18.1022 42.9836C18.4729 43.3543 18.9757 43.5625 19.4999 43.5625C20.0241 43.5625 20.5268 43.3543 20.8975 42.9836C21.2682 42.6129 21.4764 42.1102 21.4764 41.5859V38.5968C22.2468 38.7899 22.9843 39.096 23.665 39.5052C24.1141 39.7757 24.6522 39.8568 25.161 39.7306C25.6699 39.6044 26.1078 39.2813 26.3783 38.8322C26.6489 38.3832 26.73 37.8451 26.6038 37.3362C26.4776 36.8274 26.1544 36.3895 25.7054 36.1189C24.4068 35.3374 22.9718 34.8091 21.4764 34.562V25.4239L29.3908 29.9961C28.8576 31.4148 28.5978 32.9217 28.6253 34.4371C28.635 34.9549 28.8475 35.4482 29.2171 35.811C29.5867 36.1737 30.084 36.3769 30.6019 36.3768H30.6405C30.9001 36.372 31.1562 36.3161 31.3942 36.2123C31.6321 36.1085 31.8473 35.9589 32.0275 35.7719C32.2076 35.585 32.3491 35.3643 32.444 35.1227C32.5388 34.881 32.5851 34.623 32.5802 34.3634C32.5657 33.5682 32.669 32.7753 32.8866 32.0104L35.9413 33.774C36.1662 33.9185 36.4181 34.0158 36.6817 34.0601C36.9454 34.1043 37.2152 34.0947 37.475 34.0317C37.7348 33.9687 37.9791 33.8537 38.1932 33.6936C38.4072 33.5335 38.5866 33.3316 38.7204 33.1002C38.8542 32.8687 38.9397 32.6126 38.9716 32.3472C39.0036 32.0818 38.9814 31.8127 38.9064 31.5561C38.8314 31.2995 38.7051 31.0608 38.5352 30.8545C38.3652 30.6481 38.1552 30.4784 37.9179 30.3555Z" fill="url(#paint0_linear_105_6)"/>
<defs>
<linearGradient id="paint0_linear_105_6" x1="0.500001" y1="22" x2="50.5" y2="22" gradientUnits="userSpaceOnUse">
<stop stop-color="white"/>
<stop offset="1" stop-color="white" stop-opacity="0"/>
</linearGradient>
</defs>
</svg>
